<mxfile host="Electron" agent="Mozilla/5.0 (Windows NT 10.0; Win64; x64) AppleWebKit/537.36 (KHTML, like Gecko) draw.io/24.7.5 Chrome/126.0.6478.183 Electron/31.3.0 Safari/537.36" version="24.7.5">
  <diagram name="第 1 页" id="lGOlJVvRlpjENaedZZx3">
    <mxGraphModel dx="1204" dy="526" grid="1" gridSize="10" guides="1" tooltips="1" connect="1" arrows="1" fold="1" page="1" pageScale="1" pageWidth="827" pageHeight="1169" math="0" shadow="0">
      <root>
        <mxCell id="0" />
        <mxCell id="1" parent="0" />
        <mxCell id="DfL4EYblSd9R4un_ns7R-3" value="SETNX key value：当key不存在设置值&#xa;成功返回1，失败返回0&#xa;SET key value NX：同上&#xa;SET key value XX：相反，当key存在才设置&#xa;&#xa;" style="text;whiteSpace=wrap;fontSize=18;" vertex="1" parent="1">
          <mxGeometry x="30" y="40" width="450" height="110" as="geometry" />
        </mxCell>
      </root>
    </mxGraphModel>
  </diagram>
</mxfile>
